<?xml version="1.0" encoding="utf-8"?>
<!-- Generator: Adobe Illustrator 15.1.0, SVG Export Plug-In . SVG Version: 6.00 Build 0)  -->
<!DOCTYPE svg PUBLIC "-//W3C//DTD SVG 1.1//EN" "http://www.w3.org/Graphics/SVG/1.1/DTD/svg11.dtd">
<svg version="1.1" id="Layer_1" xmlns="http://www.w3.org/2000/svg" xmlns:xlink="http://www.w3.org/1999/xlink" x="0px" y="0px"
	 width="93.023px" height="100px" viewBox="5.795 -14.031 93.023 100" enable-background="new 5.795 -14.031 93.023 100"
	 xml:space="preserve">
<g>
	<path d="M41.636,47.048H15.574c1.182-7.147,4.987-21.152,17.054-32.919l5.741,16.076c0.495,1.382,1.803,2.304,3.267,2.304h25.815
		c1.915,0,3.47-1.554,3.47-3.469s-1.555-3.468-3.47-3.468H44.081L37.197,6.288c-0.083-0.237-0.194-0.456-0.32-0.662
		c-0.157-0.3-0.34-0.593-0.567-0.863c-1.65-1.955-4.565-2.203-6.516-0.56C6.48,23.836,5.816,50.478,5.796,51.604
		c-0.018,1.238,0.461,2.432,1.329,3.314c0.87,0.882,2.056,1.379,3.294,1.379h26.59v25.048c0,2.553,2.07,4.624,4.625,4.624
		c2.552,0,4.624-2.071,4.624-4.624V51.674C46.26,49.119,44.188,47.048,41.636,47.048z"/>
	<circle cx="46.26" cy="-3.916" r="10.115"/>
	<path d="M74.774,37.125H61.479c-1.277,0-2.313,1.034-2.313,2.312c0,1.278,1.036,2.312,2.313,2.312h13.295
		c1.279,0,2.312-1.033,2.312-2.312C77.087,38.159,76.054,37.125,74.774,37.125z"/>
	<path d="M89.287,22.828c-0.204-0.422-0.541-0.719-0.915-0.942L98.818-2.418l-6.375-2.741L77.287,30.108l6.375,2.739l2.505-5.833
		l4.867,10.111h-7.012c-1.279,0-2.312,1.035-2.312,2.312c0,1.278,1.033,2.312,2.312,2.312h10.693c0.792,0,1.535-0.408,1.956-1.081
		c0.424-0.673,0.469-1.518,0.128-2.233L89.287,22.828z"/>
</g>
</svg>
