<svg xmlns="http://www.w3.org/2000/svg" xmlns:xlink="http://www.w3.org/1999/xlink" version="1.1" width="96" height="96" viewBox="4.8 -9.6 96.0 129.6">
<path d="M61 58c-0.488 0-0.976-0.176-1.36-0.536-0.808-0.752-0.86-2.020-0.104-2.828l11.74-12.64-11.74-12.64c-0.752-0.812-0.704-2.076 0.104-2.828 0.804-0.752 2.072-0.704 2.828 0.104l13 14c0.712 0.768 0.712 1.956 0 2.724l-13 14c-0.396 0.428-0.932 0.644-1.468 0.644z" fill="#000000"/>
	<path d="M45 58c-0.488 0-0.976-0.176-1.36-0.536-0.808-0.752-0.856-2.020-0.104-2.828l11.74-12.64-11.74-12.64c-0.752-0.812-0.704-2.076 0.104-2.828s2.076-0.704 2.828 0.104l13 14c0.712 0.768 0.712 1.956 0 2.724l-13 14c-0.396 0.428-0.932 0.644-1.468 0.644z" fill="#000000"/>
	<path d="M31.832 64c-6.524 0-11.832-5.308-11.832-11.832 0-6.86 5.308-12.168 11.832-12.168h40.168c1.1 0 2 0.896 2 2s-0.9 2-2 2h-40.168c-4.32 0-7.832 3.512-7.832 7.832 0 4.656 3.512 8.168 7.832 8.168 1.104 0 2 0.9 2 2s-0.896 2-2 2z" fill="#000000"/>
	<path d="M48 96c-26.468 0-48-21.532-48-48s21.532-48 48-48 48 21.532 48 48-21.536 48-48 48zM48 4c-24.26 0-44 19.74-44 44 0 24.256 19.74 44 44 44 24.256 0 44-19.744 44-44 0-24.26-19.744-44-44-44z" fill="#000000"/>
<text x="0.0" y="112.8" font-size="4.8" font-weight="bold" font-family="Helvetica Neue, Helvetica, Arial-Unicode, Arial, Sans-serif" fill="#000000">Created by iconsmind.com</text><text x="0.0" y="117.6" font-size="4.8" font-weight="bold" font-family="Helvetica Neue, Helvetica, Arial-Unicode, Arial, Sans-serif" fill="#000000">from the Noun Project</text></svg>